<?xml version="1.0" encoding="utf-8"?>
<!-- Generator: Adobe Illustrator 27.2.0, SVG Export Plug-In . SVG Version: 6.00 Build 0)  -->
<svg version="1.1" id="레이어_1" xmlns="http://www.w3.org/2000/svg" xmlns:xlink="http://www.w3.org/1999/xlink" x="0px"
	 y="0px" viewBox="0 0 530.2 139" style="enable-background:new 0 0 530.2 139;" xml:space="preserve">
<style type="text/css">
	.st0{fill:url(#SVGID_1_);}
	.st1{fill:url(#SVGID_00000023256307867563051410000000583398218428580273_);}
	.st2{fill:url(#SVGID_00000166645613730160382290000010273854626586059651_);}
	.st3{fill:url(#SVGID_00000085244756761557966790000004540257779944974233_);}
	.st4{fill:url(#SVGID_00000095331722561693311430000007623285275618639754_);}
	.st5{fill:url(#SVGID_00000118367212852262363560000002240140329533132679_);}
	.st6{fill:url(#SVGID_00000140706024868429073350000003215973990604744341_);}
	.st7{fill:url(#SVGID_00000022537726357487328180000014613353776613423800_);}
	.st8{fill:url(#SVGID_00000026152869893889050390000016524886760838115713_);}
	.st9{fill:url(#SVGID_00000170989939785593443080000013151659797864431292_);}
	.st10{fill:url(#SVGID_00000091695907650715348970000012778455748251873715_);}
	.st11{fill:url(#SVGID_00000109752609622284340670000006391562928635403702_);}
	.st12{fill:url(#SVGID_00000059296248533500632750000017132999612589980579_);}
	.st13{fill:url(#SVGID_00000155124108613330928650000001361466895697895847_);}
	.st14{fill:url(#SVGID_00000006671874092960734260000014625561108529476276_);}
	.st15{fill:url(#SVGID_00000000901398189121062020000011332397945548193462_);}
	.st16{fill:url(#SVGID_00000013193046500240995820000000444702054676508579_);}
	.st17{fill:url(#SVGID_00000023264001385613537660000016593824496196130227_);}
	.st18{fill:url(#SVGID_00000042697731894142166790000007273699960516068772_);}
	.st19{fill:url(#SVGID_00000021077672555719002260000004877952219696718012_);}
	.st20{fill:url(#SVGID_00000039116939048264461290000013442913602306581382_);}
	.st21{fill:url(#SVGID_00000012447427353280558080000001126296264066240414_);}
	.st22{fill:url(#SVGID_00000122721654537997931910000007989895775871873429_);}
	.st23{fill:url(#SVGID_00000094577943802325626350000016652031052630889863_);}
	.st24{fill:url(#SVGID_00000125588330845706410670000006261182766609916844_);}
	.st25{fill:url(#SVGID_00000087395843241923403180000002011596250022304954_);}
	.st26{fill:url(#SVGID_00000183962615586696336460000003475645898747716747_);}
	.st27{fill:url(#SVGID_00000087388047888237008630000006459483459846300844_);}
	.st28{fill:url(#SVGID_00000014592721450883194830000008868202721132552877_);}
	.st29{fill:url(#SVGID_00000133515921547457573700000009784528473425401786_);}
	.st30{fill:#FFFFFF;}
</style>
<g>
	<g>
		<linearGradient id="SVGID_1_" gradientUnits="userSpaceOnUse" x1="-7.4659" y1="73.3882" x2="97.1703" y2="94.8021">
			<stop  offset="0" style="stop-color:#5FD2FF"/>
			<stop  offset="0.2137" style="stop-color:#5BD0FE"/>
			<stop  offset="0.4165" style="stop-color:#50C8FA"/>
			<stop  offset="0.615" style="stop-color:#3DBCF3"/>
			<stop  offset="0.8094" style="stop-color:#22ABEA"/>
			<stop  offset="1" style="stop-color:#0096DF"/>
		</linearGradient>
		<path class="st0" d="M105.1,60c8.7,9.4,3,19-3.3,22.6c-8.5,4.8-29,16.3-33.9,19c-3.2,1.8-5.5,3.6-9,4.4c0,0,0,0,0,0
			c-1.9,0.5-4.1,0.6-6.9,0.5c-0.8-0.1-2.1-0.2-3.8-0.5C12.6,99.5-3,58.3,16.9,29.7c0,0,0-0.1,0-0.1C8.8,40.6,3.9,54,3.7,68.6
			c0,0,0,0,0,0c0.1,0.3,0,0.6,0,1c0,0,0,0,0,0c0,2.1,0.1,4.3,0.3,6.4c3.2,34.1,31.9,60.8,66.9,60.8c0.3,0,0.5,0,0.8,0
			c15.7-0.2,30.2-9.1,37.4-23.1c11-21.3,3.8-42.1,1.5-46.6C109,63.8,107.1,61.6,105.1,60z"/>
	</g>
	
		<linearGradient id="SVGID_00000136411506058610849580000006305932690079030940_" gradientUnits="userSpaceOnUse" x1="42.6489" y1="52.1068" x2="42.6489" y2="52.1068">
		<stop  offset="0" style="stop-color:#2967B1;stop-opacity:0"/>
		<stop  offset="1" style="stop-color:#2967B1"/>
	</linearGradient>
	<path style="fill:url(#SVGID_00000136411506058610849580000006305932690079030940_);" d="M42.6,52.1"/>
	<g>
		
			<linearGradient id="SVGID_00000024688176839966143910000015636081411927621295_" gradientUnits="userSpaceOnUse" x1="133.2031" y1="7.3297" x2="97.6755" y2="92.4987">
			<stop  offset="0" style="stop-color:#5FD2FF"/>
			<stop  offset="0.2137" style="stop-color:#5BD0FE"/>
			<stop  offset="0.4165" style="stop-color:#50C8FA"/>
			<stop  offset="0.615" style="stop-color:#3DBCF3"/>
			<stop  offset="0.8094" style="stop-color:#22ABEA"/>
			<stop  offset="1" style="stop-color:#0096DF"/>
		</linearGradient>
		<path style="fill:url(#SVGID_00000024688176839966143910000015636081411927621295_);" d="M124.5,29.1c-0.2-0.2-0.3-0.4-0.5-0.6
			c0,0,0.1,0.1,0.1,0.1C124.2,28.8,124.3,29,124.5,29.1z"/>
		
			<linearGradient id="SVGID_00000160890657046017601880000000008563034864633274_" gradientUnits="userSpaceOnUse" x1="135.6991" y1="8.3709" x2="100.1714" y2="93.5399">
			<stop  offset="0" style="stop-color:#5FD2FF"/>
			<stop  offset="0.2137" style="stop-color:#5BD0FE"/>
			<stop  offset="0.4165" style="stop-color:#50C8FA"/>
			<stop  offset="0.615" style="stop-color:#3DBCF3"/>
			<stop  offset="0.8094" style="stop-color:#22ABEA"/>
			<stop  offset="1" style="stop-color:#0096DF"/>
		</linearGradient>
		<path style="fill:url(#SVGID_00000160890657046017601880000000008563034864633274_);" d="M126.6,32.1
			C126.6,32.1,126.6,32.1,126.6,32.1c-0.3-0.5-0.7-1-1-1.4c0.2,0.3,0.5,0.7,0.7,1C126.4,31.8,126.5,31.9,126.6,32.1z"/>
		
			<linearGradient id="SVGID_00000062872855465499298350000015330368159987358636_" gradientUnits="userSpaceOnUse" x1="134.6784" y1="7.9451" x2="99.1508" y2="93.1141">
			<stop  offset="0" style="stop-color:#5FD2FF"/>
			<stop  offset="0.2137" style="stop-color:#5BD0FE"/>
			<stop  offset="0.4165" style="stop-color:#50C8FA"/>
			<stop  offset="0.615" style="stop-color:#3DBCF3"/>
			<stop  offset="0.8094" style="stop-color:#22ABEA"/>
			<stop  offset="1" style="stop-color:#0096DF"/>
		</linearGradient>
		<path style="fill:url(#SVGID_00000062872855465499298350000015330368159987358636_);" d="M125.6,30.6c-0.1-0.2-0.3-0.4-0.4-0.6
			c0.1,0.1,0.2,0.3,0.3,0.4C125.5,30.5,125.5,30.5,125.6,30.6z"/>
		
			<linearGradient id="SVGID_00000093871267999974795480000015241322115394093954_" gradientUnits="userSpaceOnUse" x1="137.4375" y1="9.0961" x2="101.9099" y2="94.265">
			<stop  offset="0" style="stop-color:#5FD2FF"/>
			<stop  offset="0.2137" style="stop-color:#5BD0FE"/>
			<stop  offset="0.4165" style="stop-color:#50C8FA"/>
			<stop  offset="0.615" style="stop-color:#3DBCF3"/>
			<stop  offset="0.8094" style="stop-color:#22ABEA"/>
			<stop  offset="1" style="stop-color:#0096DF"/>
		</linearGradient>
		<path style="fill:url(#SVGID_00000093871267999974795480000015241322115394093954_);" d="M127.6,33.6c-0.1-0.2-0.3-0.5-0.5-0.7
			c0.1,0.1,0.2,0.2,0.2,0.4C127.4,33.4,127.5,33.5,127.6,33.6z"/>
		
			<linearGradient id="SVGID_00000031197205902268810620000015001155290287671989_" gradientUnits="userSpaceOnUse" x1="138.5712" y1="9.569" x2="103.0436" y2="94.7379">
			<stop  offset="0" style="stop-color:#5FD2FF"/>
			<stop  offset="0.2137" style="stop-color:#5BD0FE"/>
			<stop  offset="0.4165" style="stop-color:#50C8FA"/>
			<stop  offset="0.615" style="stop-color:#3DBCF3"/>
			<stop  offset="0.8094" style="stop-color:#22ABEA"/>
			<stop  offset="1" style="stop-color:#0096DF"/>
		</linearGradient>
		<path style="fill:url(#SVGID_00000031197205902268810620000015001155290287671989_);" d="M128.3,34.7c-0.1-0.1-0.1-0.2-0.2-0.3
			C128.1,34.5,128.2,34.6,128.3,34.7C128.3,34.7,128.3,34.7,128.3,34.7z"/>
		
			<linearGradient id="SVGID_00000047781533984206120810000002921310470954621853_" gradientUnits="userSpaceOnUse" x1="130.4115" y1="6.1653" x2="94.8839" y2="91.3342">
			<stop  offset="0" style="stop-color:#5FD2FF"/>
			<stop  offset="0.2137" style="stop-color:#5BD0FE"/>
			<stop  offset="0.4165" style="stop-color:#50C8FA"/>
			<stop  offset="0.615" style="stop-color:#3DBCF3"/>
			<stop  offset="0.8094" style="stop-color:#22ABEA"/>
			<stop  offset="1" style="stop-color:#0096DF"/>
		</linearGradient>
		<path style="fill:url(#SVGID_00000047781533984206120810000002921310470954621853_);" d="M122.5,26.7c-0.3-0.4-0.6-0.7-0.9-1.1
			c0.1,0.1,0.2,0.2,0.3,0.3C122.1,26.2,122.3,26.4,122.5,26.7z"/>
		
			<linearGradient id="SVGID_00000024702695228991649850000001969579181802003881_" gradientUnits="userSpaceOnUse" x1="85.268" y1="-12.666" x2="49.7404" y2="72.5029">
			<stop  offset="0" style="stop-color:#5FD2FF"/>
			<stop  offset="0.2137" style="stop-color:#5BD0FE"/>
			<stop  offset="0.4165" style="stop-color:#50C8FA"/>
			<stop  offset="0.615" style="stop-color:#3DBCF3"/>
			<stop  offset="0.8094" style="stop-color:#22ABEA"/>
			<stop  offset="1" style="stop-color:#0096DF"/>
		</linearGradient>
		<path style="fill:url(#SVGID_00000024702695228991649850000001969579181802003881_);" d="M101.1,13.4c7.9,1.7,14.9,5.9,20.3,11.9
			c-3.6-4.1-7.7-7.8-12.2-10.9c-3.2-2.2-6.6-4.2-10.1-5.8c0,0,0,0,0,0c-8.6-4-18.1-6.2-28.1-6.2c-0.6,0-1.2,0-1.8,0
			c-0.1,0-0.1,0-0.2,0c-0.5,0-1,0-1.6,0.1c-0.2,0-0.3,0-0.5,0c-0.4,0-0.9,0.1-1.3,0.1c-0.2,0-0.4,0-0.6,0c-0.4,0-0.8,0.1-1.2,0.1
			c-0.2,0-0.4,0-0.6,0.1c-0.4,0-0.8,0.1-1.2,0.1c-0.2,0-0.4,0.1-0.6,0.1c-0.4,0.1-0.8,0.1-1.1,0.2c-0.2,0-0.4,0.1-0.6,0.1
			c-0.4,0.1-0.8,0.1-1.1,0.2c-0.2,0-0.4,0.1-0.6,0.1c-0.4,0.1-0.8,0.2-1.2,0.2c-0.2,0-0.4,0.1-0.5,0.1c-0.4,0.1-0.8,0.2-1.2,0.3
			c-0.2,0-0.3,0.1-0.5,0.1c-0.5,0.1-1,0.3-1.5,0.4c-0.1,0-0.1,0-0.2,0.1c-1.1,0.3-2.2,0.7-3.3,1C49.3,6,49.2,6,49.1,6
			c-0.4,0.1-0.9,0.3-1.3,0.5c-0.2,0.1-0.3,0.1-0.5,0.2c-0.4,0.1-0.7,0.3-1.1,0.4c-0.2,0.1-0.4,0.1-0.5,0.2c-0.3,0.1-0.7,0.3-1,0.4
			C44.4,7.8,44.2,7.9,44,8c-0.3,0.1-0.7,0.3-1,0.4c-0.2,0.1-0.4,0.2-0.6,0.3c-0.3,0.2-0.6,0.3-1,0.5c-0.2,0.1-0.4,0.2-0.6,0.3
			c-0.3,0.2-0.6,0.3-1,0.5c-0.2,0.1-0.4,0.2-0.5,0.3c-0.3,0.2-0.7,0.4-1,0.5c-0.2,0.1-0.3,0.2-0.5,0.3c-0.3,0.2-0.7,0.4-1,0.6
			c-0.1,0.1-0.3,0.2-0.4,0.2c-0.4,0.2-0.8,0.5-1.2,0.8c-0.1,0-0.1,0.1-0.2,0.1c-0.5,0.3-1,0.6-1.4,0.9c0,0,0,0,0,0
			c-0.5,0.3-0.9,0.6-1.4,0.9c-0.1,0.1-0.2,0.2-0.4,0.3c-0.3,0.2-0.7,0.5-1,0.7c-0.2,0.1-0.3,0.2-0.5,0.3c-0.3,0.2-0.6,0.4-0.9,0.7
			c-0.2,0.1-0.3,0.3-0.5,0.4c-0.3,0.2-0.5,0.4-0.8,0.7c-0.2,0.1-0.3,0.3-0.5,0.4c-0.3,0.2-0.5,0.4-0.8,0.7c-0.2,0.1-0.3,0.3-0.5,0.4
			c-0.3,0.2-0.5,0.5-0.8,0.7c-0.2,0.1-0.3,0.3-0.5,0.4c-0.3,0.2-0.5,0.5-0.8,0.7c-0.2,0.1-0.3,0.3-0.5,0.4c-0.3,0.3-0.5,0.5-0.8,0.8
			c-0.1,0.1-0.3,0.3-0.4,0.4c-0.3,0.3-0.5,0.6-0.8,0.8c-0.1,0.1-0.2,0.3-0.4,0.4c-0.3,0.3-0.6,0.7-0.9,1.1c-0.1,0.1-0.1,0.1-0.2,0.2
			C-4.7,53.8,10.7,99.1,48.1,106c1.7,0.3,3,0.5,3.8,0.5c2.9,0.2,5.1,0,6.9-0.5C42,107.3,42.6,91,42.6,91l-0.1-32.8
			c0-0.5,0-6.2,0-6.7c0-2.8-0.1-5,0.1-7c0.2-3.2,0.9-5.8,3.3-9.5C49.3,29.9,66.4,6.1,101.1,13.4z"/>
		
			<linearGradient id="SVGID_00000172415628602778461110000012320408992302987649_" gradientUnits="userSpaceOnUse" x1="131.6977" y1="6.7018" x2="96.1701" y2="91.8707">
			<stop  offset="0" style="stop-color:#5FD2FF"/>
			<stop  offset="0.2137" style="stop-color:#5BD0FE"/>
			<stop  offset="0.4165" style="stop-color:#50C8FA"/>
			<stop  offset="0.615" style="stop-color:#3DBCF3"/>
			<stop  offset="0.8094" style="stop-color:#22ABEA"/>
			<stop  offset="1" style="stop-color:#0096DF"/>
		</linearGradient>
		<path style="fill:url(#SVGID_00000172415628602778461110000012320408992302987649_);" d="M123.3,27.7c-0.2-0.2-0.3-0.4-0.5-0.6
			c0.1,0.1,0.1,0.1,0.2,0.2C123.1,27.4,123.2,27.5,123.3,27.7z"/>
		
			<linearGradient id="SVGID_00000151531996766602034380000004739226635473658005_" gradientUnits="userSpaceOnUse" x1="132.4589" y1="7.0193" x2="96.9313" y2="92.1883">
			<stop  offset="0" style="stop-color:#5FD2FF"/>
			<stop  offset="0.2137" style="stop-color:#5BD0FE"/>
			<stop  offset="0.4165" style="stop-color:#50C8FA"/>
			<stop  offset="0.615" style="stop-color:#3DBCF3"/>
			<stop  offset="0.8094" style="stop-color:#22ABEA"/>
			<stop  offset="1" style="stop-color:#0096DF"/>
		</linearGradient>
		<path style="fill:url(#SVGID_00000151531996766602034380000004739226635473658005_);" d="M124,28.4c-0.2-0.2-0.4-0.5-0.5-0.7
			c0,0,0-0.1-0.1-0.1C123.6,27.9,123.8,28.2,124,28.4C124,28.5,124,28.5,124,28.4z"/>
		
			<linearGradient id="SVGID_00000053525324686483412590000013675986693630672042_" gradientUnits="userSpaceOnUse" x1="133.9487" y1="7.6408" x2="98.4211" y2="92.8097">
			<stop  offset="0" style="stop-color:#5FD2FF"/>
			<stop  offset="0.2137" style="stop-color:#5BD0FE"/>
			<stop  offset="0.4165" style="stop-color:#50C8FA"/>
			<stop  offset="0.615" style="stop-color:#3DBCF3"/>
			<stop  offset="0.8094" style="stop-color:#22ABEA"/>
			<stop  offset="1" style="stop-color:#0096DF"/>
		</linearGradient>
		<path style="fill:url(#SVGID_00000053525324686483412590000013675986693630672042_);" d="M125,29.8c-0.2-0.2-0.4-0.5-0.5-0.7
			c0,0,0,0,0,0c0.2,0.3,0.4,0.6,0.7,0.9C125.1,29.9,125.1,29.9,125,29.8z"/>
		
			<linearGradient id="SVGID_00000145740660262731420720000016171696361519543948_" gradientUnits="userSpaceOnUse" x1="131.1879" y1="6.4891" x2="95.6603" y2="91.6581">
			<stop  offset="0" style="stop-color:#5FD2FF"/>
			<stop  offset="0.2137" style="stop-color:#5BD0FE"/>
			<stop  offset="0.4165" style="stop-color:#50C8FA"/>
			<stop  offset="0.615" style="stop-color:#3DBCF3"/>
			<stop  offset="0.8094" style="stop-color:#22ABEA"/>
			<stop  offset="1" style="stop-color:#0096DF"/>
		</linearGradient>
		<path style="fill:url(#SVGID_00000145740660262731420720000016171696361519543948_);" d="M122.7,26.8c0,0-0.1-0.1-0.1-0.1
			c0.1,0.1,0.2,0.2,0.3,0.3C122.8,27,122.7,26.9,122.7,26.8z"/>
		
			<linearGradient id="SVGID_00000183216116895859289910000003586272990384759994_" gradientUnits="userSpaceOnUse" x1="129.6444" y1="5.8452" x2="94.1168" y2="91.0142">
			<stop  offset="0" style="stop-color:#5FD2FF"/>
			<stop  offset="0.2137" style="stop-color:#5BD0FE"/>
			<stop  offset="0.4165" style="stop-color:#50C8FA"/>
			<stop  offset="0.615" style="stop-color:#3DBCF3"/>
			<stop  offset="0.8094" style="stop-color:#22ABEA"/>
			<stop  offset="1" style="stop-color:#0096DF"/>
		</linearGradient>
		<path style="fill:url(#SVGID_00000183216116895859289910000003586272990384759994_);" d="M121.5,25.4
			C121.4,25.4,121.4,25.3,121.5,25.4c-0.1-0.1-0.1-0.1-0.1-0.1c0.1,0.1,0.2,0.2,0.3,0.3C121.6,25.5,121.5,25.5,121.5,25.4z"/>
		
			<linearGradient id="SVGID_00000140705381079010854360000008658721250111756955_" gradientUnits="userSpaceOnUse" x1="136.7607" y1="8.8138" x2="101.2331" y2="93.9827">
			<stop  offset="0" style="stop-color:#5FD2FF"/>
			<stop  offset="0.2137" style="stop-color:#5BD0FE"/>
			<stop  offset="0.4165" style="stop-color:#50C8FA"/>
			<stop  offset="0.615" style="stop-color:#3DBCF3"/>
			<stop  offset="0.8094" style="stop-color:#22ABEA"/>
			<stop  offset="1" style="stop-color:#0096DF"/>
		</linearGradient>
		<path style="fill:url(#SVGID_00000140705381079010854360000008658721250111756955_);" d="M126.9,32.6c-0.1-0.1-0.2-0.3-0.3-0.4
			c0.2,0.3,0.3,0.5,0.5,0.8C127.1,32.8,127,32.7,126.9,32.6z"/>
		
			<linearGradient id="SVGID_00000018931485688171062500000001898973030725381560_" gradientUnits="userSpaceOnUse" x1="138.0982" y1="9.3717" x2="102.5706" y2="94.5406">
			<stop  offset="0" style="stop-color:#5FD2FF"/>
			<stop  offset="0.2137" style="stop-color:#5BD0FE"/>
			<stop  offset="0.4165" style="stop-color:#50C8FA"/>
			<stop  offset="0.615" style="stop-color:#3DBCF3"/>
			<stop  offset="0.8094" style="stop-color:#22ABEA"/>
			<stop  offset="1" style="stop-color:#0096DF"/>
		</linearGradient>
		<path style="fill:url(#SVGID_00000018931485688171062500000001898973030725381560_);" d="M127.9,34.1c-0.1-0.2-0.2-0.3-0.3-0.5
			c0.2,0.3,0.3,0.5,0.5,0.8C128,34.3,127.9,34.2,127.9,34.1z"/>
		
			<linearGradient id="SVGID_00000159443037800793026550000006883258804858025621_" gradientUnits="userSpaceOnUse" x1="134.9864" y1="8.0736" x2="99.4588" y2="93.2426">
			<stop  offset="0" style="stop-color:#5FD2FF"/>
			<stop  offset="0.2137" style="stop-color:#5BD0FE"/>
			<stop  offset="0.4165" style="stop-color:#50C8FA"/>
			<stop  offset="0.615" style="stop-color:#3DBCF3"/>
			<stop  offset="0.8094" style="stop-color:#22ABEA"/>
			<stop  offset="1" style="stop-color:#0096DF"/>
		</linearGradient>
		<path style="fill:url(#SVGID_00000159443037800793026550000006883258804858025621_);" d="M125.6,30.6
			C125.6,30.6,125.6,30.6,125.6,30.6C125.6,30.6,125.6,30.6,125.6,30.6C125.6,30.6,125.6,30.6,125.6,30.6z"/>
		
			<linearGradient id="SVGID_00000013176582521968640320000002025918232918655894_" gradientUnits="userSpaceOnUse" x1="114.758" y1="-0.3645" x2="79.2304" y2="84.8044">
			<stop  offset="0" style="stop-color:#5FD2FF"/>
			<stop  offset="0.2137" style="stop-color:#5BD0FE"/>
			<stop  offset="0.4165" style="stop-color:#50C8FA"/>
			<stop  offset="0.615" style="stop-color:#3DBCF3"/>
			<stop  offset="0.8094" style="stop-color:#22ABEA"/>
			<stop  offset="1" style="stop-color:#0096DF"/>
		</linearGradient>
		<path style="fill:url(#SVGID_00000013176582521968640320000002025918232918655894_);" d="M60.1,135.9c-1.4-0.2-2.7-0.5-4.1-0.8
			C57.4,135.4,58.7,135.7,60.1,135.9z"/>
		
			<linearGradient id="SVGID_00000080888033614603087100000009811147819774415537_" gradientUnits="userSpaceOnUse" x1="120.442" y1="2.0065" x2="84.9144" y2="87.1755">
			<stop  offset="0" style="stop-color:#5FD2FF"/>
			<stop  offset="0.2137" style="stop-color:#5BD0FE"/>
			<stop  offset="0.4165" style="stop-color:#50C8FA"/>
			<stop  offset="0.615" style="stop-color:#3DBCF3"/>
			<stop  offset="0.8094" style="stop-color:#22ABEA"/>
			<stop  offset="1" style="stop-color:#0096DF"/>
		</linearGradient>
		<path style="fill:url(#SVGID_00000080888033614603087100000009811147819774415537_);" d="M66.4,136.6c-1.3-0.1-2.7-0.2-4-0.4
			C63.7,136.4,65,136.5,66.4,136.6z"/>
	</g>
	<g>
		
			<linearGradient id="SVGID_00000000909944067527287250000007266735011941486982_" gradientUnits="userSpaceOnUse" x1="83.8912" y1="164.9244" x2="27.4363" y2="72.4552">
			<stop  offset="0" style="stop-color:#5FD2FF"/>
			<stop  offset="0.2137" style="stop-color:#5BD0FE"/>
			<stop  offset="0.4165" style="stop-color:#50C8FA"/>
			<stop  offset="0.615" style="stop-color:#3DBCF3"/>
			<stop  offset="0.8094" style="stop-color:#22ABEA"/>
			<stop  offset="1" style="stop-color:#0096DF"/>
		</linearGradient>
		<path style="fill:url(#SVGID_00000000909944067527287250000007266735011941486982_);" d="M66.9,136.6c-0.2,0-0.3,0-0.5,0
			C66.5,136.6,66.7,136.6,66.9,136.6z"/>
		
			<linearGradient id="SVGID_00000036944938231767700420000011013299709456458398_" gradientUnits="userSpaceOnUse" x1="79.5449" y1="167.5779" x2="23.09" y2="75.1087">
			<stop  offset="0" style="stop-color:#5FD2FF"/>
			<stop  offset="0.2137" style="stop-color:#5BD0FE"/>
			<stop  offset="0.4165" style="stop-color:#50C8FA"/>
			<stop  offset="0.615" style="stop-color:#3DBCF3"/>
			<stop  offset="0.8094" style="stop-color:#22ABEA"/>
			<stop  offset="1" style="stop-color:#0096DF"/>
		</linearGradient>
		<path style="fill:url(#SVGID_00000036944938231767700420000011013299709456458398_);" d="M60.3,135.9c-0.1,0-0.1,0-0.2,0
			C60.2,135.9,60.2,135.9,60.3,135.9z"/>
		
			<linearGradient id="SVGID_00000036958654690827301640000006890693609514183323_" gradientUnits="userSpaceOnUse" x1="85.3244" y1="164.0493" x2="28.8696" y2="71.5801">
			<stop  offset="0" style="stop-color:#5FD2FF"/>
			<stop  offset="0.2137" style="stop-color:#5BD0FE"/>
			<stop  offset="0.4165" style="stop-color:#50C8FA"/>
			<stop  offset="0.615" style="stop-color:#3DBCF3"/>
			<stop  offset="0.8094" style="stop-color:#22ABEA"/>
			<stop  offset="1" style="stop-color:#0096DF"/>
		</linearGradient>
		<path style="fill:url(#SVGID_00000036958654690827301640000006890693609514183323_);" d="M68.9,136.7c-0.2,0-0.4,0-0.6,0
			C68.5,136.7,68.7,136.7,68.9,136.7z"/>
		
			<linearGradient id="SVGID_00000032647458671194398650000017038403097897098630_" gradientUnits="userSpaceOnUse" x1="80.9008" y1="166.75" x2="24.446" y2="74.2809">
			<stop  offset="0" style="stop-color:#5FD2FF"/>
			<stop  offset="0.2137" style="stop-color:#5BD0FE"/>
			<stop  offset="0.4165" style="stop-color:#50C8FA"/>
			<stop  offset="0.615" style="stop-color:#3DBCF3"/>
			<stop  offset="0.8094" style="stop-color:#22ABEA"/>
			<stop  offset="1" style="stop-color:#0096DF"/>
		</linearGradient>
		<path style="fill:url(#SVGID_00000032647458671194398650000017038403097897098630_);" d="M62.4,136.2c-0.1,0-0.2,0-0.3,0
			C62.2,136.2,62.3,136.2,62.4,136.2z"/>
		
			<linearGradient id="SVGID_00000167388143015056000120000000998465490914993830_" gradientUnits="userSpaceOnUse" x1="130.5394" y1="136.4444" x2="74.0845" y2="43.9752">
			<stop  offset="0" style="stop-color:#5FD2FF"/>
			<stop  offset="0.2137" style="stop-color:#5BD0FE"/>
			<stop  offset="0.4165" style="stop-color:#50C8FA"/>
			<stop  offset="0.615" style="stop-color:#3DBCF3"/>
			<stop  offset="0.8094" style="stop-color:#22ABEA"/>
			<stop  offset="1" style="stop-color:#0096DF"/>
		</linearGradient>
		<path style="fill:url(#SVGID_00000167388143015056000120000000998465490914993830_);" d="M138,69.3c0-0.5,0-1.1,0-1.6
			c0-0.2,0-0.5,0-0.7c0-0.4,0-0.8-0.1-1.3c0-0.2,0-0.5,0-0.7c0-0.4-0.1-0.8-0.1-1.3c0-0.2,0-0.4,0-0.5c0-0.2,0-0.3,0-0.5
			c0-0.2,0-0.3-0.1-0.5c0-0.3-0.1-0.6-0.1-0.9c0-0.2-0.1-0.5-0.1-0.7c-0.1-0.4-0.1-0.8-0.2-1.2c0-0.2-0.1-0.4-0.1-0.7
			c0-0.1,0-0.2-0.1-0.3c-0.1-0.5-0.2-0.9-0.2-1.4c0-0.2-0.1-0.4-0.1-0.6c-0.1-0.4-0.2-0.8-0.2-1.2c-0.1-0.2-0.1-0.5-0.2-0.7
			c-0.1-0.4-0.2-0.8-0.3-1.1c-0.1-0.2-0.1-0.4-0.2-0.6c-0.1-0.5-0.3-1.1-0.4-1.6c-0.1-0.2-0.1-0.4-0.2-0.6c-0.1-0.2-0.1-0.4-0.2-0.6
			c-0.1-0.2-0.1-0.3-0.2-0.5c-0.1-0.2-0.2-0.5-0.2-0.7c-0.1-0.2-0.1-0.4-0.2-0.5c-0.1-0.2-0.1-0.4-0.2-0.6c-0.1-0.2-0.1-0.4-0.2-0.6
			c-0.1-0.2-0.1-0.4-0.2-0.6c-0.1-0.3-0.2-0.7-0.4-1c-0.1-0.2-0.2-0.5-0.3-0.7c-0.1-0.3-0.3-0.7-0.4-1c-0.1-0.2-0.2-0.5-0.3-0.7
			c-0.1-0.3-0.3-0.7-0.5-1c-0.1-0.3-0.2-0.5-0.4-0.8c-0.1-0.2-0.2-0.4-0.3-0.6c-0.1-0.2-0.2-0.4-0.3-0.7c-0.1-0.2-0.2-0.5-0.4-0.7
			c-0.1-0.3-0.3-0.6-0.5-0.9c-0.1-0.2-0.3-0.5-0.4-0.7c-0.2-0.3-0.4-0.7-0.5-1c-0.2-0.3-0.4-0.7-0.6-1c-0.2-0.3-0.4-0.6-0.6-0.9
			c-0.1-0.2-0.3-0.5-0.4-0.7c-0.2-0.3-0.3-0.5-0.5-0.8c-0.2-0.2-0.3-0.5-0.5-0.7c-0.1-0.2-0.2-0.3-0.3-0.5c-0.1-0.2-0.2-0.3-0.3-0.5
			c-0.2-0.3-0.5-0.7-0.7-1c-0.1-0.1-0.1-0.1-0.2-0.2c-0.1-0.2-0.3-0.4-0.4-0.6c-0.2-0.2-0.4-0.5-0.5-0.7c-0.1-0.2-0.3-0.3-0.4-0.5
			c0-0.1-0.1-0.1-0.1-0.2c-0.2-0.2-0.4-0.5-0.5-0.7c-0.1-0.2-0.3-0.3-0.4-0.5c-0.1-0.1-0.2-0.3-0.3-0.4c-0.3-0.3-0.5-0.6-0.8-1
			c-0.1-0.2-0.3-0.3-0.4-0.5c0,0-0.1-0.1-0.1-0.1c-5.3-6-12.4-10.2-20.3-11.9C66.4,6.1,49.3,29.9,46,35c-2.4,3.7-3.1,6.3-3.3,9.5
			c2.8-12.7,15.2-12.5,21.5-8.9c8.4,5,30,17.8,33.4,19.8c2,1.2,4.8,2.4,7.5,4.6c2,1.6,4,3.8,5.5,7c2.2,4.5,9.4,25.4-1.5,46.6
			c-7.2,14-21.7,22.9-37.4,23.1c-0.3,0-0.5,0-0.8,0c10,0,19.4-2.2,27.9-6c5.3-2.4,10.2-5.5,14.6-9.1c0.5-0.4,1.1-0.9,1.6-1.3
			c0.2-0.1,0.3-0.3,0.5-0.4c0.4-0.3,0.7-0.6,1.1-1c0.2-0.2,0.4-0.3,0.5-0.5c0.4-0.3,0.7-0.7,1.1-1c0.2-0.2,0.3-0.3,0.5-0.5
			c0.5-0.5,1-1,1.4-1.5c0,0,0,0,0,0c0.4-0.4,0.7-0.8,1.1-1.2c0.1-0.1,0.3-0.3,0.4-0.4c0.2-0.3,0.5-0.6,0.7-0.9
			c0.1-0.2,0.3-0.3,0.4-0.5c0.2-0.3,0.4-0.5,0.7-0.8c0.1-0.2,0.3-0.4,0.4-0.5c0.2-0.3,0.4-0.6,0.7-0.8c0.1-0.2,0.3-0.3,0.4-0.5
			c0.2-0.3,0.5-0.7,0.7-1c0.1-0.1,0.2-0.2,0.3-0.4c0.3-0.5,0.6-0.9,0.9-1.4c0.1-0.1,0.2-0.3,0.3-0.4c0.2-0.3,0.4-0.7,0.6-1
			c0.1-0.2,0.2-0.4,0.4-0.6c0.2-0.3,0.4-0.6,0.5-0.9c0.1-0.2,0.2-0.4,0.4-0.6c0.2-0.3,0.3-0.6,0.5-0.9c0.1-0.2,0.2-0.4,0.3-0.6
			c0.2-0.3,0.4-0.6,0.5-1c0.1-0.2,0.2-0.4,0.3-0.5c0.3-0.5,0.5-1,0.7-1.5c0.1-0.1,0.1-0.3,0.2-0.4c0.2-0.4,0.4-0.8,0.5-1.2
			c0.1-0.2,0.2-0.4,0.3-0.6c0.1-0.3,0.3-0.6,0.4-1c0.1-0.2,0.2-0.4,0.3-0.7c0.1-0.3,0.3-0.6,0.4-0.9c0.1-0.2,0.2-0.5,0.3-0.7
			c0.1-0.3,0.2-0.6,0.4-1c0.1-0.2,0.2-0.4,0.2-0.7c0.1-0.4,0.3-0.8,0.4-1.2c0-0.2,0.1-0.3,0.2-0.5c0.2-0.5,0.3-1.1,0.5-1.6
			c0.1-0.2,0.1-0.4,0.2-0.6c0.1-0.3,0.2-0.7,0.3-1c0.1-0.2,0.1-0.5,0.2-0.7c0.1-0.3,0.2-0.6,0.2-1c0.1-0.3,0.1-0.5,0.2-0.8
			c0.1-0.3,0.1-0.7,0.2-1c0.1-0.2,0.1-0.5,0.2-0.7c0.1-0.4,0.1-0.7,0.2-1.1c0-0.2,0.1-0.4,0.1-0.7c0.1-0.6,0.2-1.1,0.3-1.7
			c0-0.2,0.1-0.4,0.1-0.6c0.1-0.4,0.1-0.7,0.1-1.1c0-0.3,0.1-0.5,0.1-0.8c0-0.3,0.1-0.7,0.1-1c0-0.3,0-0.5,0.1-0.8
			c0-0.3,0-0.7,0.1-1c0-0.3,0-0.5,0-0.8c0-0.3,0-0.7,0-1c0-0.3,0-0.5,0-0.8c0-0.4,0-0.9,0-1.3c0-0.2,0-0.3,0-0.5
			C138,69.5,138,69.4,138,69.3z"/>
		
			<linearGradient id="SVGID_00000157292738171278904150000009735571986825529518_" gradientUnits="userSpaceOnUse" x1="76.8678" y1="169.2123" x2="20.413" y2="76.7431">
			<stop  offset="0" style="stop-color:#5FD2FF"/>
			<stop  offset="0.2137" style="stop-color:#5BD0FE"/>
			<stop  offset="0.4165" style="stop-color:#50C8FA"/>
			<stop  offset="0.615" style="stop-color:#3DBCF3"/>
			<stop  offset="0.8094" style="stop-color:#22ABEA"/>
			<stop  offset="1" style="stop-color:#0096DF"/>
		</linearGradient>
		<path style="fill:url(#SVGID_00000157292738171278904150000009735571986825529518_);" d="M56.1,135.1
			C56,135.1,56,135.1,56.1,135.1C56,135.1,56,135.1,56.1,135.1z"/>
		
			<linearGradient id="SVGID_00000036940255734979208720000010091627158989835164_" gradientUnits="userSpaceOnUse" x1="84.5961" y1="164.494" x2="28.1412" y2="72.0248">
			<stop  offset="0" style="stop-color:#5FD2FF"/>
			<stop  offset="0.2137" style="stop-color:#5BD0FE"/>
			<stop  offset="0.4165" style="stop-color:#50C8FA"/>
			<stop  offset="0.615" style="stop-color:#3DBCF3"/>
			<stop  offset="0.8094" style="stop-color:#22ABEA"/>
			<stop  offset="1" style="stop-color:#0096DF"/>
		</linearGradient>
		<path style="fill:url(#SVGID_00000036940255734979208720000010091627158989835164_);" d="M68.4,136.7c-0.5,0-1,0-1.5-0.1
			C67.4,136.7,67.9,136.7,68.4,136.7z"/>
		
			<linearGradient id="SVGID_00000153680102691406297290000001593718174587186822_" gradientUnits="userSpaceOnUse" x1="78.1783" y1="168.4122" x2="21.7234" y2="75.9431">
			<stop  offset="0" style="stop-color:#5FD2FF"/>
			<stop  offset="0.2137" style="stop-color:#5BD0FE"/>
			<stop  offset="0.4165" style="stop-color:#50C8FA"/>
			<stop  offset="0.615" style="stop-color:#3DBCF3"/>
			<stop  offset="0.8094" style="stop-color:#22ABEA"/>
			<stop  offset="1" style="stop-color:#0096DF"/>
		</linearGradient>
		<path style="fill:url(#SVGID_00000153680102691406297290000001593718174587186822_);" d="M60.1,135.9c-1.4-0.2-2.7-0.5-4.1-0.8
			C57.4,135.4,58.7,135.7,60.1,135.9z"/>
		
			<linearGradient id="SVGID_00000031200565816752461890000007823539397071090321_" gradientUnits="userSpaceOnUse" x1="86.2299" y1="163.4965" x2="29.7751" y2="71.0273">
			<stop  offset="0" style="stop-color:#5FD2FF"/>
			<stop  offset="0.2137" style="stop-color:#5BD0FE"/>
			<stop  offset="0.4165" style="stop-color:#50C8FA"/>
			<stop  offset="0.615" style="stop-color:#3DBCF3"/>
			<stop  offset="0.8094" style="stop-color:#22ABEA"/>
			<stop  offset="1" style="stop-color:#0096DF"/>
		</linearGradient>
		<path style="fill:url(#SVGID_00000031200565816752461890000007823539397071090321_);" d="M70.9,136.8c-0.7,0-1.3,0-2,0
			C69.6,136.7,70.2,136.8,70.9,136.8z"/>
		
			<linearGradient id="SVGID_00000043424992408213570250000012533996160865881242_" gradientUnits="userSpaceOnUse" x1="80.206" y1="167.1742" x2="23.7512" y2="74.7051">
			<stop  offset="0" style="stop-color:#5FD2FF"/>
			<stop  offset="0.2137" style="stop-color:#5BD0FE"/>
			<stop  offset="0.4165" style="stop-color:#50C8FA"/>
			<stop  offset="0.615" style="stop-color:#3DBCF3"/>
			<stop  offset="0.8094" style="stop-color:#22ABEA"/>
			<stop  offset="1" style="stop-color:#0096DF"/>
		</linearGradient>
		<path style="fill:url(#SVGID_00000043424992408213570250000012533996160865881242_);" d="M62.1,136.2c-0.6-0.1-1.2-0.2-1.8-0.3
			C60.9,136,61.5,136.1,62.1,136.2z"/>
		
			<linearGradient id="SVGID_00000063595277940603251120000005601842666532186276_" gradientUnits="userSpaceOnUse" x1="82.3584" y1="165.8602" x2="25.9035" y2="73.391">
			<stop  offset="0" style="stop-color:#5FD2FF"/>
			<stop  offset="0.2137" style="stop-color:#5BD0FE"/>
			<stop  offset="0.4165" style="stop-color:#50C8FA"/>
			<stop  offset="0.615" style="stop-color:#3DBCF3"/>
			<stop  offset="0.8094" style="stop-color:#22ABEA"/>
			<stop  offset="1" style="stop-color:#0096DF"/>
		</linearGradient>
		<path style="fill:url(#SVGID_00000063595277940603251120000005601842666532186276_);" d="M66.4,136.6c-1.3-0.1-2.7-0.2-4-0.4
			C63.7,136.4,65,136.5,66.4,136.6z"/>
	</g>
</g>
<g>
	<path class="st30" d="M201.3,59c-3.6,0-7-0.6-10.1-1.9c-3.1-1.2-5.8-3-8.1-5.2s-4.1-4.9-5.4-7.9c-1.3-3-1.9-6.3-1.9-9.8
		c0-3.5,0.7-6.8,2-9.8c1.3-3,3.2-5.7,5.6-7.9s5.2-4,8.4-5.2c3.2-1.2,6.6-1.9,10.2-1.9c4.3,0,8.2,0.8,11.6,2.3
		c3.5,1.5,6.3,3.6,8.5,6.3l-8.1,8.1c-1.6-1.9-3.4-3.4-5.3-4.4c-1.9-1-4.2-1.5-6.8-1.5c-2.6,0-4.9,0.6-7,1.7s-3.7,2.8-4.9,4.9
		c-1.2,2.1-1.8,4.5-1.8,7.3c0,2.8,0.6,5.3,1.7,7.4c1.1,2.1,2.7,3.8,4.7,4.9c2,1.2,4.3,1.7,6.9,1.7c2.6,0,4.8-0.5,6.7-1.5
		c1.8-1,3.2-2.4,4.2-4.3c0.9-1.9,1.4-4.2,1.4-6.8l8.2,5.3L200,40.4v-10h26v1.8c0,5.7-1,10.6-3.1,14.6c-2.1,4-5,7-8.7,9
		C210.5,58,206.2,59,201.3,59z"/>
	<path class="st30" d="M231.6,58.3v-48h12.1v48H231.6z M239.7,58.3V47.8h11.6c2.7,0,5-0.5,7-1.6c2-1,3.6-2.6,4.7-4.6
		c1.1-2.1,1.6-4.5,1.6-7.5c0-2.9-0.6-5.3-1.7-7.3c-1.1-2-2.7-3.5-4.7-4.6c-2-1.1-4.3-1.6-7-1.6h-12.1V10.2h12.1
		c3.7,0,7.1,0.6,10.3,1.7c3.1,1.2,5.9,2.8,8.2,4.9c2.3,2.1,4.1,4.6,5.3,7.6c1.3,2.9,1.9,6.2,1.9,9.7c0,3.6-0.6,6.8-1.9,9.8
		c-1.3,3-3,5.5-5.3,7.6c-2.3,2.1-5,3.8-8.1,4.9c-3.1,1.2-6.5,1.7-10.2,1.7H239.7z"/>
	<path class="st30" d="M283.2,58.3v-48h12.1v48H283.2z M292.8,20.5V10.2h24.8v10.2H292.8z M292.8,40.3V30.1h23.8v10.2H292.8z"/>
	<path class="st30" d="M178.7,127.1V79.5h9.2v47.6H178.7z M185.5,109.5v-7.5h11c1.4,0,2.8-0.3,3.9-0.9c1.2-0.6,2.1-1.5,2.7-2.6
		c0.7-1.1,1-2.4,1-4c0-1.5-0.3-2.9-1-4c-0.7-1.1-1.6-2-2.7-2.6c-1.2-0.6-2.5-0.9-3.9-0.9h-11v-7.5h12c3,0,5.7,0.6,8.2,1.8
		c2.4,1.2,4.3,2.9,5.7,5.2c1.4,2.2,2.1,4.9,2.1,8c0,3.1-0.7,5.7-2.1,8c-1.4,2.3-3.3,4-5.7,5.2c-2.4,1.2-5.1,1.8-8.2,1.8H185.5z"/>
	<path class="st30" d="M219.9,127.1V79.5h9.2v47.6H219.9z M226.7,127.1v-8.2H251v8.2H226.7z"/>
	<path class="st30" d="M252.6,127.1l19.2-47.6h7.6l19,47.6h-9.8l-14.8-39h3.4l-14.9,39H252.6z M262.8,118.2v-7.7h25.6v7.7H262.8z"/>
	<path class="st30" d="M295,87.7v-8.2h39.6v8.2H295z M310.2,127.1V80.5h9.3v46.6H310.2z"/>
	<path class="st30" d="M341,127.1V79.5h9.2v47.6H341z M347.8,87.6v-8.1h25.1v8.1H347.8z M347.8,107.6v-8.1h24v8.1H347.8z"/>
	<path class="st30" d="M401.8,127.8c-3.5,0-6.7-0.6-9.7-1.9c-3-1.3-5.6-3-7.9-5.3c-2.3-2.3-4-4.9-5.3-7.9c-1.3-3-1.9-6.2-1.9-9.6
		s0.6-6.6,1.9-9.6c1.3-3,3-5.6,5.2-7.8s4.8-4,7.8-5.2c3-1.2,6.2-1.8,9.7-1.8c3.5,0,6.8,0.6,9.8,1.8c3,1.2,5.6,3,7.8,5.2
		s4,4.9,5.2,7.9c1.3,3,1.9,6.2,1.9,9.6c0,3.4-0.6,6.6-1.9,9.6c-1.3,3-3,5.6-5.2,7.9c-2.2,2.3-4.8,4-7.8,5.2
		C408.4,127.2,405.2,127.8,401.8,127.8z M401.7,119.3c3,0,5.7-0.7,8-2c2.3-1.4,4.1-3.2,5.3-5.7c1.3-2.4,1.9-5.2,1.9-8.4
		c0-2.3-0.4-4.5-1.1-6.4c-0.7-1.9-1.8-3.6-3.1-5c-1.4-1.4-2.9-2.5-4.8-3.3c-1.8-0.8-3.9-1.2-6.2-1.2c-3,0-5.6,0.7-7.9,2
		c-2.3,1.3-4,3.2-5.3,5.6c-1.3,2.4-1.9,5.2-1.9,8.3c0,2.4,0.4,4.6,1.1,6.6s1.7,3.7,3.1,5.1c1.3,1.4,2.9,2.5,4.8,3.3
		C397.4,118.9,399.5,119.3,401.7,119.3z"/>
	<path class="st30" d="M433.7,127.1V79.5h9.2v47.6H433.7z M440.5,107.2V100h11c2.3,0,4.1-0.6,5.3-1.7s1.8-2.7,1.8-4.7
		c0-1.9-0.6-3.5-1.8-4.7c-1.2-1.2-3-1.9-5.2-1.9h-11v-7.5h11.9c3,0,5.7,0.6,8,1.8c2.3,1.2,4.1,2.8,5.4,4.9c1.3,2.1,1.9,4.5,1.9,7.2
		c0,2.8-0.6,5.2-1.9,7.3c-1.3,2.1-3.1,3.7-5.5,4.8c-2.3,1.2-5.1,1.8-8.2,1.8H440.5z M459.7,127.1l-15.8-20.6l8.5-2.6l18.4,23.2
		H459.7z"/>
	<path class="st30" d="M476.1,127.1V79.5h6.5l19.3,30.9h-3.7l19.2-30.9h6.5v47.6h-9.2V95.3l1.8,0.5l-13.3,21.5h-6.4l-13.3-21.5
		l1.8-0.5v31.8H476.1z"/>
</g>
</svg>
