<?xml version="1.0" encoding="utf-8"?>
<!-- Generator: Adobe Illustrator 27.2.0, SVG Export Plug-In . SVG Version: 6.00 Build 0)  -->
<svg version="1.1" id="레이어_1" xmlns="http://www.w3.org/2000/svg" xmlns:xlink="http://www.w3.org/1999/xlink" x="0px"
	 y="0px" viewBox="0 0 554 125" style="enable-background:new 0 0 554 125;" xml:space="preserve">
<style type="text/css">
	.st0{fill:#1A191C;}
	.st1{fill:#7E57FF;}
</style>
<g>
	<g>
		<g>
			<g>
				<path class="st0" d="M137.2,106.9V20.4h16.7v86.5H137.2z M149.5,74.9V61.3h20c2.6,0,5-0.6,7.2-1.7c2.1-1.1,3.8-2.7,5-4.6
					c1.2-2,1.8-4.5,1.8-7.3s-0.6-5.2-1.8-7.2c-1.2-2-2.8-3.5-5-4.6c-2.1-1.1-4.5-1.7-7.2-1.7h-20V20.4h21.8c5.5,0,10.5,1.1,14.9,3.3
					s7.9,5.3,10.4,9.4s3.9,8.9,3.9,14.5s-1.3,10.5-3.9,14.5c-2.5,4.1-6,7.2-10.4,9.5c-4.4,2.2-9.4,3.3-14.9,3.3H149.5L149.5,74.9z"
					/>
			</g>
		</g>
		<g>
			<g>
				<path class="st0" d="M217.1,37.9c-2.6,0-4.8-0.9-6.5-2.7c-1.7-1.7-2.6-3.9-2.6-6.6c0-2.5,0.9-4.7,2.6-6.5s3.9-2.7,6.5-2.7
					c2.7,0,4.9,0.9,6.6,2.7c1.7,1.8,2.5,4,2.5,6.5c0,2.6-0.9,4.8-2.5,6.6C221.9,37,219.8,37.9,217.1,37.9z M208.9,106.9V47.5h16.3
					v59.4H208.9z"/>
			</g>
		</g>
		<g>
			<g>
				<path class="st0" d="M234,106.9V18h16.1v89L234,106.9L234,106.9z M271.8,106.9l-22.9-30.7l22.8-28.8h18.7l-26.8,32.5l0.6-7.9
					l27.4,34.8h-19.8V106.9z"/>
			</g>
		</g>
		<g>
			<g>
				<path class="st0" d="M316.3,108.1c-5.4,0-10.3-1.3-14.5-4.1c-4.3-2.7-7.7-6.4-10.1-11.1S288,83,288,77.2
					c0-5.9,1.3-11.2,3.7-15.9s5.8-8.3,10.1-11.1c4.3-2.7,9.2-4.1,14.7-4.1c4.2,0,7.9,0.9,11.3,2.6c3.4,1.7,6.1,4.1,8.1,7.2
					c2,3.1,3.1,6.5,3.3,10.5v21.5c-0.2,3.9-1.3,7.3-3.2,10.4c-2,3.1-4.7,5.5-8.1,7.2C324.4,107.3,320.6,108.1,316.3,108.1z
					 M319.4,93.3c4.5,0,8.2-1.5,10.9-4.6c2.8-3.1,4.2-6.8,4.2-11.5c0-3.1-0.6-5.9-2-8.3c-1.3-2.4-3.1-4.4-5.3-5.7
					c-2.2-1.3-4.9-2-7.9-2s-5.6,0.7-7.8,2.1c-2.3,1.4-4,3.3-5.3,5.7s-1.9,5.1-1.9,8.3c0,3.2,0.6,6,1.9,8.3s3.1,4.2,5.3,5.7
					C314,92.6,316.6,93.3,319.4,93.3z M333.5,106.9v-16l2.7-14.5L333.5,62V47.5h16.3v59.4H333.5z"/>
			</g>
		</g>
		<g>
			<g>
				<path class="st0" d="M382.3,106.9l-26.2-59.4h17.7l18.9,49H384l18.8-49H420l-26.1,59.4H382.3z"/>
			</g>
		</g>
		<g>
			<g>
				<path class="st0" d="M453.5,108c-5.2,0-9.8-1.1-13.9-3.2c-4.1-2.2-7.3-5.3-9.6-9.2s-3.5-8.5-3.5-13.7V47.5h16.3v34.1
					c0,2.4,0.4,4.6,1.3,6.4c0.8,1.7,2,3.1,3.7,4s3.5,1.3,5.8,1.3c3.4,0,6-1,7.9-3.1c1.9-2,2.8-5,2.8-8.6V47.5h16.1v34.4
					c0,5.2-1.2,9.7-3.5,13.7s-5.5,7-9.5,9.2C463.3,107,458.8,108,453.5,108z"/>
			</g>
		</g>
		<g>
			<g>
				<path class="st0" d="M518.5,108.3c-6.2,0-11.8-1.3-16.7-4.1c-4.9-2.7-8.7-6.4-11.5-11.1c-2.8-4.6-4.2-10-4.2-16
					c0-5.9,1.3-11.2,4.1-15.9c2.8-4.6,6.5-8.3,11.2-11.1c4.8-2.7,10.1-4.1,16-4.1c5.6,0,10.6,1.3,15,3.9c4.4,2.5,7.9,6.1,10.3,10.6
					c2.4,4.5,3.7,9.7,3.7,15.4c0,1.1-0.1,2.1-0.2,3.2c-0.1,1.1-0.3,2.3-0.6,3.6l-50,0.3V70.9l42.6-0.2l-6.7,5
					c-0.1-3.5-0.7-6.4-1.8-8.9c-1.2-2.4-2.8-4.2-4.8-5.4c-2-1.3-4.6-1.8-7.6-1.8c-3.2,0-6,0.7-8.3,2.1c-2.4,1.4-4.2,3.4-5.5,6
					s-1.9,5.7-1.9,9.2c0,3.6,0.7,6.8,2,9.4c1.3,2.7,3.3,4.7,5.8,6.1s5.5,2.1,8.9,2.1c3.1,0,5.8-0.5,8.3-1.5c2.4-1,4.6-2.5,6.4-4.6
					l9.6,9.6c-3.1,3.5-6.6,6.1-10.7,7.8C527.8,107.4,523.2,108.3,518.5,108.3z"/>
			</g>
		</g>
	</g>
</g>
<path class="st1" d="M49.5,29.1v19.3L35.7,34.5c-4,3.7-6.5,9-6.5,14.8c0,11.2,9.1,20.3,20.3,20.3s20.3-9.1,20.3-20.3
	C69.7,38.2,60.7,29.1,49.5,29.1z"/>
<path class="st1" d="M67.7,73.9c-5.1,3.8-11.4,6-18.2,6c-16.9,0-30.6-13.7-30.6-30.6s13.7-30.6,30.6-30.6s30.6,13.7,30.6,30.6
	c0,5.7-1.5,11-4.2,15.5L89,78.1c5.9-8.1,9.4-18,9.4-28.8c0-27-21.9-48.9-48.9-48.9S0.6,22.2,0.6,49.2v75.3l36.4-28
	c4,1.1,8.2,1.6,12.5,1.6c11.9,0,22.7-4.2,31.2-11.2L67.7,73.9z"/>
</svg>
